<svg xmlns="http://www.w3.org/2000/svg" width="802" height="218" viewBox="0 0 802 218">
  <style>
    .bg { fill: #0d1117; }
    .border { fill: none; stroke: #30363d; stroke-width: 1; }
    .title { font-family: 'Courier New', monospace; font-size: 13px; fill: #8b949e; }
    .month { font-family: 'Courier New', monospace; font-size: 10px; fill: #8b949e; }
    .daylabel { font-family: 'Courier New', monospace; font-size: 9px; fill: #8b949e; }
    .stats { font-family: 'Courier New', monospace; font-size: 12px; fill: #39FF14; }
  </style>
  <rect class="bg" width="802" height="218" rx="10"/>
  <rect class="border" x="0.5" y="0.5" width="801" height="217" rx="10"/>
  <text x="20" y="20" class="title">AmiryasinYousefi369 &#8212; contributions, last 12 months</text>
  <text x="40" y="20" class="month">Sep</text><text x="68" y="20" class="month">Oct</text><text x="124" y="20" class="month">Nov</text><text x="194" y="20" class="month">Dec</text><text x="250" y="20" class="month">Jan</text><text x="306" y="20" class="month">Feb</text><text x="362" y="20" class="month">Mar</text><text x="432" y="20" class="month">Apr</text><text x="488" y="20" class="month">May</text><text x="558" y="20" class="month">Jun</text><text x="614" y="20" class="month">Jul</text><text x="670" y="20" class="month">Aug</text><text x="740" y="20" class="month">Sep</text>
  
    <text x="4" y="62" class="daylabel">Mon</text>
    <text x="4" y="90" class="daylabel">Wed</text>
    <text x="4" y="118" class="daylabel">Fri</text>
    
  <rect x="40" y="40" width="11" height="11" rx="2" fill="#161b22"/><rect x="40" y="54" width="11" height="11" rx="2" fill="#161b22"/><rect x="40" y="68" width="11" height="11" rx="2" fill="#161b22"/><rect x="40" y="82" width="11" height="11" rx="2" fill="#161b22"/><rect x="40" y="96" width="11" height="11" rx="2" fill="#161b22"/><rect x="40" y="110" width="11" height="11" rx="2" fill="#161b22"/><rect x="40" y="124" width="11" height="11" rx="2" fill="#161b22"/><rect x="54" y="40" width="11" height="11" rx="2" fill="#161b22"/><rect x="54" y="54" width="11" height="11" rx="2" fill="#161b22"/><rect x="54" y="68" width="11" height="11" rx="2" fill="#161b22"/><rect x="54" y="82" width="11" height="11" rx="2" fill="#161b22"/><rect x="54" y="96" width="11" height="11" rx="2" fill="#161b22"/><rect x="54" y="110" width="11" height="11" rx="2" fill="#161b22"/><rect x="54" y="124" width="11" height="11" rx="2" fill="#161b22"/><rect x="68" y="40" width="11" height="11" rx="2" fill="#161b22"/><rect x="68" y="54" width="11" height="11" rx="2" fill="#161b22"/><rect x="68" y="68" width="11" height="11" rx="2" fill="#161b22"/><rect x="68" y="82" width="11" height="11" rx="2" fill="#161b22"/><rect x="68" y="96" width="11" height="11" rx="2" fill="#161b22"/><rect x="68" y="110" width="11" height="11" rx="2" fill="#161b22"/><rect x="68" y="124" width="11" height="11" rx="2" fill="#161b22"/><rect x="82" y="40" width="11" height="11" rx="2" fill="#161b22"/><rect x="82" y="54" width="11" height="11" rx="2" fill="#161b22"/><rect x="82" y="68" width="11" height="11" rx="2" fill="#161b22"/><rect x="82" y="82" width="11" height="11" rx="2" fill="#161b22"/><rect x="82" y="96" width="11" height="11" rx="2" fill="#161b22"/><rect x="82" y="110" width="11" height="11" rx="2" fill="#161b22"/><rect x="82" y="124" width="11" height="11" rx="2" fill="#161b22"/><rect x="96" y="40" width="11" height="11" rx="2" fill="#161b22"/><rect x="96" y="54" width="11" height="11" rx="2" fill="#161b22"/><rect x="96" y="68" width="11" height="11" rx="2" fill="#161b22"/><rect x="96" y="82" width="11" height="11" rx="2" fill="#161b22"/><rect x="96" y="96" width="11" height="11" rx="2" fill="#161b22"/><rect x="96" y="110" width="11" height="11" rx="2" fill="#161b22"/><rect x="96" y="124" width="11" height="11" rx="2" fill="#161b22"/><rect x="110" y="40" width="11" height="11" rx="2" fill="#161b22"/><rect x="110" y="54" width="11" height="11" rx="2" fill="#161b22"/><rect x="110" y="68" width="11" height="11" rx="2" fill="#161b22"/><rect x="110" y="82" width="11" height="11" rx="2" fill="#161b22"/><rect x="110" y="96" width="11" height="11" rx="2" fill="#161b22"/><rect x="110" y="110" width="11" height="11" rx="2" fill="#161b22"/><rect x="110" y="124" width="11" height="11" rx="2" fill="#161b22"/><rect x="124" y="40" width="11" height="11" rx="2" fill="#161b22"/><rect x="124" y="54" width="11" height="11" rx="2" fill="#161b22"/><rect x="124" y="68" width="11" height="11" rx="2" fill="#161b22"/><rect x="124" y="82" width="11" height="11" rx="2" fill="#161b22"/><rect x="124" y="96" width="11" height="11" rx="2" fill="#161b22"/><rect x="124" y="110" width="11" height="11" rx="2" fill="#161b22"/><rect x="124" y="124" width="11" height="11" rx="2" fill="#161b22"/><rect x="138" y="40" width="11" height="11" rx="2" fill="#161b22"/><rect x="138" y="54" width="11" height="11" rx="2" fill="#161b22"/><rect x="138" y="68" width="11" height="11" rx="2" fill="#161b22"/><rect x="138" y="82" width="11" height="11" rx="2" fill="#161b22"/><rect x="138" y="96" width="11" height="11" rx="2" fill="#161b22"/><rect x="138" y="110" width="11" height="11" rx="2" fill="#161b22"/><rect x="138" y="124" width="11" height="11" rx="2" fill="#161b22"/><rect x="152" y="40" width="11" height="11" rx="2" fill="#161b22"/><rect x="152" y="54" width="11" height="11" rx="2" fill="#161b22"/><rect x="152" y="68" width="11" height="11" rx="2" fill="#161b22"/><rect x="152" y="82" width="11" height="11" rx="2" fill="#161b22"/><rect x="152" y="96" width="11" height="11" rx="2" fill="#161b22"/><rect x="152" y="110" width="11" height="11" rx="2" fill="#161b22"/><rect x="152" y="124" width="11" height="11" rx="2" fill="#161b22"/><rect x="166" y="40" width="11" height="11" rx="2" fill="#161b22"/><rect x="166" y="54" width="11" height="11" rx="2" fill="#161b22"/><rect x="166" y="68" width="11" height="11" rx="2" fill="#161b22"/><rect x="166" y="82" width="11" height="11" rx="2" fill="#161b22"/><rect x="166" y="96" width="11" height="11" rx="2" fill="#161b22"/><rect x="166" y="110" width="11" height="11" rx="2" fill="#161b22"/><rect x="166" y="124" width="11" height="11" rx="2" fill="#161b22"/><rect x="180" y="40" width="11" height="11" rx="2" fill="#161b22"/><rect x="180" y="54" width="11" height="11" rx="2" fill="#161b22"/><rect x="180" y="68" width="11" height="11" rx="2" fill="#161b22"/><rect x="180" y="82" width="11" height="11" rx="2" fill="#161b22"/><rect x="180" y="96" width="11" height="11" rx="2" fill="#161b22"/><rect x="180" y="110" width="11" height="11" rx="2" fill="#161b22"/><rect x="180" y="124" width="11" height="11" rx="2" fill="#161b22"/><rect x="194" y="40" width="11" height="11" rx="2" fill="#161b22"/><rect x="194" y="54" width="11" height="11" rx="2" fill="#161b22"/><rect x="194" y="68" width="11" height="11" rx="2" fill="#161b22"/><rect x="194" y="82" width="11" height="11" rx="2" fill="#161b22"/><rect x="194" y="96" width="11" height="11" rx="2" fill="#161b22"/><rect x="194" y="110" width="11" height="11" rx="2" fill="#161b22"/><rect x="194" y="124" width="11" height="11" rx="2" fill="#161b22"/><rect x="208" y="40" width="11" height="11" rx="2" fill="#161b22"/><rect x="208" y="54" width="11" height="11" rx="2" fill="#161b22"/><rect x="208" y="68" width="11" height="11" rx="2" fill="#161b22"/><rect x="208" y="82" width="11" height="11" rx="2" fill="#161b22"/><rect x="208" y="96" width="11" height="11" rx="2" fill="#161b22"/><rect x="208" y="110" width="11" height="11" rx="2" fill="#161b22"/><rect x="208" y="124" width="11" height="11" rx="2" fill="#161b22"/><rect x="222" y="40" width="11" height="11" rx="2" fill="#161b22"/><rect x="222" y="54" width="11" height="11" rx="2" fill="#161b22"/><rect x="222" y="68" width="11" height="11" rx="2" fill="#161b22"/><rect x="222" y="82" width="11" height="11" rx="2" fill="#161b22"/><rect x="222" y="96" width="11" height="11" rx="2" fill="#161b22"/><rect x="222" y="110" width="11" height="11" rx="2" fill="#161b22"/><rect x="222" y="124" width="11" height="11" rx="2" fill="#161b22"/><rect x="236" y="40" width="11" height="11" rx="2" fill="#161b22"/><rect x="236" y="54" width="11" height="11" rx="2" fill="#161b22"/><rect x="236" y="68" width="11" height="11" rx="2" fill="#161b22"/><rect x="236" y="82" width="11" height="11" rx="2" fill="#161b22"/><rect x="236" y="96" width="11" height="11" rx="2" fill="#161b22"/><rect x="236" y="110" width="11" height="11" rx="2" fill="#161b22"/><rect x="236" y="124" width="11" height="11" rx="2" fill="#161b22"/><rect x="250" y="40" width="11" height="11" rx="2" fill="#161b22"/><rect x="250" y="54" width="11" height="11" rx="2" fill="#161b22"/><rect x="250" y="68" width="11" height="11" rx="2" fill="#161b22"/><rect x="250" y="82" width="11" height="11" rx="2" fill="#161b22"/><rect x="250" y="96" width="11" height="11" rx="2" fill="#161b22"/><rect x="250" y="110" width="11" height="11" rx="2" fill="#161b22"/><rect x="250" y="124" width="11" height="11" rx="2" fill="#161b22"/><rect x="264" y="40" width="11" height="11" rx="2" fill="#161b22"/><rect x="264" y="54" width="11" height="11" rx="2" fill="#161b22"/><rect x="264" y="68" width="11" height="11" rx="2" fill="#161b22"/><rect x="264" y="82" width="11" height="11" rx="2" fill="#161b22"/><rect x="264" y="96" width="11" height="11" rx="2" fill="#161b22"/><rect x="264" y="110" width="11" height="11" rx="2" fill="#161b22"/><rect x="264" y="124" width="11" height="11" rx="2" fill="#161b22"/><rect x="278" y="40" width="11" height="11" rx="2" fill="#161b22"/><rect x="278" y="54" width="11" height="11" rx="2" fill="#161b22"/><rect x="278" y="68" width="11" height="11" rx="2" fill="#161b22"/><rect x="278" y="82" width="11" height="11" rx="2" fill="#161b22"/><rect x="278" y="96" width="11" height="11" rx="2" fill="#161b22"/><rect x="278" y="110" width="11" height="11" rx="2" fill="#161b22"/><rect x="278" y="124" width="11" height="11" rx="2" fill="#161b22"/><rect x="292" y="40" width="11" height="11" rx="2" fill="#161b22"/><rect x="292" y="54" width="11" height="11" rx="2" fill="#161b22"/><rect x="292" y="68" width="11" height="11" rx="2" fill="#161b22"/><rect x="292" y="82" width="11" height="11" rx="2" fill="#161b22"/><rect x="292" y="96" width="11" height="11" rx="2" fill="#161b22"/><rect x="292" y="110" width="11" height="11" rx="2" fill="#161b22"/><rect x="292" y="124" width="11" height="11" rx="2" fill="#161b22"/><rect x="306" y="40" width="11" height="11" rx="2" fill="#161b22"/><rect x="306" y="54" width="11" height="11" rx="2" fill="#161b22"/><rect x="306" y="68" width="11" height="11" rx="2" fill="#161b22"/><rect x="306" y="82" width="11" height="11" rx="2" fill="#161b22"/><rect x="306" y="96" width="11" height="11" rx="2" fill="#161b22"/><rect x="306" y="110" width="11" height="11" rx="2" fill="#161b22"/><rect x="306" y="124" width="11" height="11" rx="2" fill="#161b22"/><rect x="320" y="40" width="11" height="11" rx="2" fill="#161b22"/><rect x="320" y="54" width="11" height="11" rx="2" fill="#161b22"/><rect x="320" y="68" width="11" height="11" rx="2" fill="#161b22"/><rect x="320" y="82" width="11" height="11" rx="2" fill="#161b22"/><rect x="320" y="96" width="11" height="11" rx="2" fill="#161b22"/><rect x="320" y="110" width="11" height="11" rx="2" fill="#161b22"/><rect x="320" y="124" width="11" height="11" rx="2" fill="#161b22"/><rect x="334" y="40" width="11" height="11" rx="2" fill="#161b22"/><rect x="334" y="54" width="11" height="11" rx="2" fill="#161b22"/><rect x="334" y="68" width="11" height="11" rx="2" fill="#161b22"/><rect x="334" y="82" width="11" height="11" rx="2" fill="#161b22"/><rect x="334" y="96" width="11" height="11" rx="2" fill="#161b22"/><rect x="334" y="110" width="11" height="11" rx="2" fill="#161b22"/><rect x="334" y="124" width="11" height="11" rx="2" fill="#161b22"/><rect x="348" y="40" width="11" height="11" rx="2" fill="#161b22"/><rect x="348" y="54" width="11" height="11" rx="2" fill="#161b22"/><rect x="348" y="68" width="11" height="11" rx="2" fill="#161b22"/><rect x="348" y="82" width="11" height="11" rx="2" fill="#161b22"/><rect x="348" y="96" width="11" height="11" rx="2" fill="#161b22"/><rect x="348" y="110" width="11" height="11" rx="2" fill="#161b22"/><rect x="348" y="124" width="11" height="11" rx="2" fill="#161b22"/><rect x="362" y="40" width="11" height="11" rx="2" fill="#161b22"/><rect x="362" y="54" width="11" height="11" rx="2" fill="#161b22"/><rect x="362" y="68" width="11" height="11" rx="2" fill="#161b22"/><rect x="362" y="82" width="11" height="11" rx="2" fill="#161b22"/><rect x="362" y="96" width="11" height="11" rx="2" fill="#161b22"/><rect x="362" y="110" width="11" height="11" rx="2" fill="#161b22"/><rect x="362" y="124" width="11" height="11" rx="2" fill="#161b22"/><rect x="376" y="40" width="11" height="11" rx="2" fill="#161b22"/><rect x="376" y="54" width="11" height="11" rx="2" fill="#161b22"/><rect x="376" y="68" width="11" height="11" rx="2" fill="#161b22"/><rect x="376" y="82" width="11" height="11" rx="2" fill="#161b22"/><rect x="376" y="96" width="11" height="11" rx="2" fill="#161b22"/><rect x="376" y="110" width="11" height="11" rx="2" fill="#161b22"/><rect x="376" y="124" width="11" height="11" rx="2" fill="#161b22"/><rect x="390" y="40" width="11" height="11" rx="2" fill="#161b22"/><rect x="390" y="54" width="11" height="11" rx="2" fill="#161b22"/><rect x="390" y="68" width="11" height="11" rx="2" fill="#161b22"/><rect x="390" y="82" width="11" height="11" rx="2" fill="#161b22"/><rect x="390" y="96" width="11" height="11" rx="2" fill="#161b22"/><rect x="390" y="110" width="11" height="11" rx="2" fill="#161b22"/><rect x="390" y="124" width="11" height="11" rx="2" fill="#161b22"/><rect x="404" y="40" width="11" height="11" rx="2" fill="#161b22"/><rect x="404" y="54" width="11" height="11" rx="2" fill="#161b22"/><rect x="404" y="68" width="11" height="11" rx="2" fill="#161b22"/><rect x="404" y="82" width="11" height="11" rx="2" fill="#161b22"/><rect x="404" y="96" width="11" height="11" rx="2" fill="#161b22"/><rect x="404" y="110" width="11" height="11" rx="2" fill="#161b22"/><rect x="404" y="124" width="11" height="11" rx="2" fill="#161b22"/><rect x="418" y="40" width="11" height="11" rx="2" fill="#161b22"/><rect x="418" y="54" width="11" height="11" rx="2" fill="#161b22"/><rect x="418" y="68" width="11" height="11" rx="2" fill="#161b22"/><rect x="418" y="82" width="11" height="11" rx="2" fill="#161b22"/><rect x="418" y="96" width="11" height="11" rx="2" fill="#161b22"/><rect x="418" y="110" width="11" height="11" rx="2" fill="#161b22"/><rect x="418" y="124" width="11" height="11" rx="2" fill="#161b22"/><rect x="432" y="40" width="11" height="11" rx="2" fill="#161b22"/><rect x="432" y="54" width="11" height="11" rx="2" fill="#161b22"/><rect x="432" y="68" width="11" height="11" rx="2" fill="#161b22"/><rect x="432" y="82" width="11" height="11" rx="2" fill="#161b22"/><rect x="432" y="96" width="11" height="11" rx="2" fill="#161b22"/><rect x="432" y="110" width="11" height="11" rx="2" fill="#161b22"/><rect x="432" y="124" width="11" height="11" rx="2" fill="#161b22"/><rect x="446" y="40" width="11" height="11" rx="2" fill="#161b22"/><rect x="446" y="54" width="11" height="11" rx="2" fill="#161b22"/><rect x="446" y="68" width="11" height="11" rx="2" fill="#161b22"/><rect x="446" y="82" width="11" height="11" rx="2" fill="#161b22"/><rect x="446" y="96" width="11" height="11" rx="2" fill="#161b22"/><rect x="446" y="110" width="11" height="11" rx="2" fill="#161b22"/><rect x="446" y="124" width="11" height="11" rx="2" fill="#161b22"/><rect x="460" y="40" width="11" height="11" rx="2" fill="#161b22"/><rect x="460" y="54" width="11" height="11" rx="2" fill="#161b22"/><rect x="460" y="68" width="11" height="11" rx="2" fill="#161b22"/><rect x="460" y="82" width="11" height="11" rx="2" fill="#161b22"/><rect x="460" y="96" width="11" height="11" rx="2" fill="#161b22"/><rect x="460" y="110" width="11" height="11" rx="2" fill="#161b22"/><rect x="460" y="124" width="11" height="11" rx="2" fill="#161b22"/><rect x="474" y="40" width="11" height="11" rx="2" fill="#161b22"/><rect x="474" y="54" width="11" height="11" rx="2" fill="#161b22"/><rect x="474" y="68" width="11" height="11" rx="2" fill="#161b22"/><rect x="474" y="82" width="11" height="11" rx="2" fill="#161b22"/><rect x="474" y="96" width="11" height="11" rx="2" fill="#161b22"/><rect x="474" y="110" width="11" height="11" rx="2" fill="#161b22"/><rect x="474" y="124" width="11" height="11" rx="2" fill="#161b22"/><rect x="488" y="40" width="11" height="11" rx="2" fill="#161b22"/><rect x="488" y="54" width="11" height="11" rx="2" fill="#161b22"/><rect x="488" y="68" width="11" height="11" rx="2" fill="#161b22"/><rect x="488" y="82" width="11" height="11" rx="2" fill="#161b22"/><rect x="488" y="96" width="11" height="11" rx="2" fill="#161b22"/><rect x="488" y="110" width="11" height="11" rx="2" fill="#161b22"/><rect x="488" y="124" width="11" height="11" rx="2" fill="#161b22"/><rect x="502" y="40" width="11" height="11" rx="2" fill="#161b22"/><rect x="502" y="54" width="11" height="11" rx="2" fill="#161b22"/><rect x="502" y="68" width="11" height="11" rx="2" fill="#161b22"/><rect x="502" y="82" width="11" height="11" rx="2" fill="#161b22"/><rect x="502" y="96" width="11" height="11" rx="2" fill="#161b22"/><rect x="502" y="110" width="11" height="11" rx="2" fill="#161b22"/><rect x="502" y="124" width="11" height="11" rx="2" fill="#161b22"/><rect x="516" y="40" width="11" height="11" rx="2" fill="#161b22"/><rect x="516" y="54" width="11" height="11" rx="2" fill="#161b22"/><rect x="516" y="68" width="11" height="11" rx="2" fill="#161b22"/><rect x="516" y="82" width="11" height="11" rx="2" fill="#161b22"/><rect x="516" y="96" width="11" height="11" rx="2" fill="#161b22"/><rect x="516" y="110" width="11" height="11" rx="2" fill="#161b22"/><rect x="516" y="124" width="11" height="11" rx="2" fill="#161b22"/><rect x="530" y="40" width="11" height="11" rx="2" fill="#161b22"/><rect x="530" y="54" width="11" height="11" rx="2" fill="#161b22"/><rect x="530" y="68" width="11" height="11" rx="2" fill="#161b22"/><rect x="530" y="82" width="11" height="11" rx="2" fill="#161b22"/><rect x="530" y="96" width="11" height="11" rx="2" fill="#161b22"/><rect x="530" y="110" width="11" height="11" rx="2" fill="#161b22"/><rect x="530" y="124" width="11" height="11" rx="2" fill="#161b22"/><rect x="544" y="40" width="11" height="11" rx="2" fill="#161b22"/><rect x="544" y="54" width="11" height="11" rx="2" fill="#161b22"/><rect x="544" y="68" width="11" height="11" rx="2" fill="#161b22"/><rect x="544" y="82" width="11" height="11" rx="2" fill="#161b22"/><rect x="544" y="96" width="11" height="11" rx="2" fill="#161b22"/><rect x="544" y="110" width="11" height="11" rx="2" fill="#161b22"/><rect x="544" y="124" width="11" height="11" rx="2" fill="#161b22"/><rect x="558" y="40" width="11" height="11" rx="2" fill="#161b22"/><rect x="558" y="54" width="11" height="11" rx="2" fill="#161b22"/><rect x="558" y="68" width="11" height="11" rx="2" fill="#161b22"/><rect x="558" y="82" width="11" height="11" rx="2" fill="#161b22"/><rect x="558" y="96" width="11" height="11" rx="2" fill="#161b22"/><rect x="558" y="110" width="11" height="11" rx="2" fill="#161b22"/><rect x="558" y="124" width="11" height="11" rx="2" fill="#161b22"/><rect x="572" y="40" width="11" height="11" rx="2" fill="#161b22"/><rect x="572" y="54" width="11" height="11" rx="2" fill="#161b22"/><rect x="572" y="68" width="11" height="11" rx="2" fill="#161b22"/><rect x="572" y="82" width="11" height="11" rx="2" fill="#161b22"/><rect x="572" y="96" width="11" height="11" rx="2" fill="#161b22"/><rect x="572" y="110" width="11" height="11" rx="2" fill="#161b22"/><rect x="572" y="124" width="11" height="11" rx="2" fill="#161b22"/><rect x="586" y="40" width="11" height="11" rx="2" fill="#161b22"/><rect x="586" y="54" width="11" height="11" rx="2" fill="#161b22"/><rect x="586" y="68" width="11" height="11" rx="2" fill="#161b22"/><rect x="586" y="82" width="11" height="11" rx="2" fill="#161b22"/><rect x="586" y="96" width="11" height="11" rx="2" fill="#161b22"/><rect x="586" y="110" width="11" height="11" rx="2" fill="#161b22"/><rect x="586" y="124" width="11" height="11" rx="2" fill="#161b22"/><rect x="600" y="40" width="11" height="11" rx="2" fill="#161b22"/><rect x="600" y="54" width="11" height="11" rx="2" fill="#161b22"/><rect x="600" y="68" width="11" height="11" rx="2" fill="#161b22"/><rect x="600" y="82" width="11" height="11" rx="2" fill="#161b22"/><rect x="600" y="96" width="11" height="11" rx="2" fill="#161b22"/><rect x="600" y="110" width="11" height="11" rx="2" fill="#161b22"/><rect x="600" y="124" width="11" height="11" rx="2" fill="#161b22"/><rect x="614" y="40" width="11" height="11" rx="2" fill="#161b22"/><rect x="614" y="54" width="11" height="11" rx="2" fill="#161b22"/><rect x="614" y="68" width="11" height="11" rx="2" fill="#161b22"/><rect x="614" y="82" width="11" height="11" rx="2" fill="#161b22"/><rect x="614" y="96" width="11" height="11" rx="2" fill="#161b22"/><rect x="614" y="110" width="11" height="11" rx="2" fill="#161b22"/><rect x="614" y="124" width="11" height="11" rx="2" fill="#161b22"/><rect x="628" y="40" width="11" height="11" rx="2" fill="#161b22"/><rect x="628" y="54" width="11" height="11" rx="2" fill="#161b22"/><rect x="628" y="68" width="11" height="11" rx="2" fill="#161b22"/><rect x="628" y="82" width="11" height="11" rx="2" fill="#161b22"/><rect x="628" y="96" width="11" height="11" rx="2" fill="#161b22"/><rect x="628" y="110" width="11" height="11" rx="2" fill="#161b22"/><rect x="628" y="124" width="11" height="11" rx="2" fill="#161b22"/><rect x="642" y="40" width="11" height="11" rx="2" fill="#161b22"/><rect x="642" y="54" width="11" height="11" rx="2" fill="#161b22"/><rect x="642" y="68" width="11" height="11" rx="2" fill="#161b22"/><rect x="642" y="82" width="11" height="11" rx="2" fill="#161b22"/><rect x="642" y="96" width="11" height="11" rx="2" fill="#161b22"/><rect x="642" y="110" width="11" height="11" rx="2" fill="#161b22"/><rect x="642" y="124" width="11" height="11" rx="2" fill="#161b22"/><rect x="656" y="40" width="11" height="11" rx="2" fill="#161b22"/><rect x="656" y="54" width="11" height="11" rx="2" fill="#161b22"/><rect x="656" y="68" width="11" height="11" rx="2" fill="#161b22"/><rect x="656" y="82" width="11" height="11" rx="2" fill="#161b22"/><rect x="656" y="96" width="11" height="11" rx="2" fill="#161b22"/><rect x="656" y="110" width="11" height="11" rx="2" fill="#161b22"/><rect x="656" y="124" width="11" height="11" rx="2" fill="#161b22"/><rect x="670" y="40" width="11" height="11" rx="2" fill="#161b22"/><rect x="670" y="54" width="11" height="11" rx="2" fill="#161b22"/><rect x="670" y="68" width="11" height="11" rx="2" fill="#161b22"/><rect x="670" y="82" width="11" height="11" rx="2" fill="#161b22"/><rect x="670" y="96" width="11" height="11" rx="2" fill="#161b22"/><rect x="670" y="110" width="11" height="11" rx="2" fill="#161b22"/><rect x="670" y="124" width="11" height="11" rx="2" fill="#161b22"/><rect x="684" y="40" width="11" height="11" rx="2" fill="#161b22"/><rect x="684" y="54" width="11" height="11" rx="2" fill="#161b22"/><rect x="684" y="68" width="11" height="11" rx="2" fill="#161b22"/><rect x="684" y="82" width="11" height="11" rx="2" fill="#161b22"/><rect x="684" y="96" width="11" height="11" rx="2" fill="#161b22"/><rect x="684" y="110" width="11" height="11" rx="2" fill="#161b22"/><rect x="684" y="124" width="11" height="11" rx="2" fill="#161b22"/><rect x="698" y="40" width="11" height="11" rx="2" fill="#161b22"/><rect x="698" y="54" width="11" height="11" rx="2" fill="#161b22"/><rect x="698" y="68" width="11" height="11" rx="2" fill="#161b22"/><rect x="698" y="82" width="11" height="11" rx="2" fill="#161b22"/><rect x="698" y="96" width="11" height="11" rx="2" fill="#161b22"/><rect x="698" y="110" width="11" height="11" rx="2" fill="#161b22"/><rect x="698" y="124" width="11" height="11" rx="2" fill="#161b22"/><rect x="712" y="40" width="11" height="11" rx="2" fill="#161b22"/><rect x="712" y="54" width="11" height="11" rx="2" fill="#161b22"/><rect x="712" y="68" width="11" height="11" rx="2" fill="#161b22"/><rect x="712" y="82" width="11" height="11" rx="2" fill="#161b22"/><rect x="712" y="96" width="11" height="11" rx="2" fill="#161b22"/><rect x="712" y="110" width="11" height="11" rx="2" fill="#161b22"/><rect x="712" y="124" width="11" height="11" rx="2" fill="#161b22"/><rect x="726" y="40" width="11" height="11" rx="2" fill="#161b22"/><rect x="726" y="54" width="11" height="11" rx="2" fill="#161b22"/><rect x="726" y="68" width="11" height="11" rx="2" fill="#161b22"/><rect x="726" y="82" width="11" height="11" rx="2" fill="#161b22"/><rect x="726" y="96" width="11" height="11" rx="2" fill="#161b22"/><rect x="726" y="110" width="11" height="11" rx="2" fill="#161b22"/><rect x="726" y="124" width="11" height="11" rx="2" fill="#161b22"/><rect x="740" y="40" width="11" height="11" rx="2" fill="#161b22"/><rect x="740" y="54" width="11" height="11" rx="2" fill="#161b22"/><rect x="740" y="68" width="11" height="11" rx="2" fill="#161b22"/><rect x="740" y="82" width="11" height="11" rx="2" fill="#161b22"/><rect x="740" y="96" width="11" height="11" rx="2" fill="#161b22"/><rect x="740" y="110" width="11" height="11" rx="2" fill="#161b22"/><rect x="740" y="124" width="11" height="11" rx="2" fill="#161b22"/><rect x="754" y="40" width="11" height="11" rx="2" fill="#161b22"/><rect x="754" y="54" width="11" height="11" rx="2" fill="#161b22"/><rect x="754" y="68" width="11" height="11" rx="2" fill="#006d32"/><rect x="754" y="82" width="11" height="11" rx="2" fill="#161b22"/><rect x="754" y="96" width="11" height="11" rx="2" fill="#161b22"/><rect x="754" y="110" width="11" height="11" rx="2" fill="#161b22"/><rect x="754" y="124" width="11" height="11" rx="2" fill="#161b22"/><rect x="768" y="40" width="11" height="11" rx="2" fill="#39d353"/><rect x="768" y="54" width="11" height="11" rx="2" fill="#39d353"/><rect x="768" y="68" width="11" height="11" rx="2" fill="#39d353"/><rect x="768" y="82" width="11" height="11" rx="2" fill="#006d32"/><rect x="768" y="96" width="11" height="11" rx="2" fill="#161b22"/><rect x="768" y="110" width="11" height="11" rx="2" fill="#161b22"/><rect x="768" y="124" width="11" height="11" rx="2" fill="#161b22"/>
  <text x="20" y="168" class="stats">32 contributions in the last year &#183; current streak 0d &#183; longest 4d &#183; best day 15 &#183; 0.09/day</text>
</svg>